<svg width="23" height="23" viewBox="0 0 23 23" fill="none" xmlns="http://www.w3.org/2000/svg">
<path d="M11.5 22.2813C9.36767 22.2813 7.28323 21.6489 5.51026 20.4643C3.7373 19.2796 2.35544 17.5958 1.53943 15.6258C0.723421 13.6558 0.509917 11.488 0.925914 9.39669C1.34191 7.30533 2.36872 5.38429 3.87651 3.87651C5.38429 2.36872 7.30533 1.34191 9.39669 0.925914C11.488 0.509917 13.6558 0.723421 15.6258 1.53943C17.5958 2.35544 19.2796 3.7373 20.4643 5.51026C21.6489 7.28323 22.2813 9.36767 22.2813 11.5C22.278 14.3584 21.1411 17.0988 19.1199 19.1199C17.0988 21.1411 14.3584 22.278 11.5 22.2813ZM11.5 2.15625C9.65199 2.15625 7.84547 2.70426 6.3089 3.73096C4.77232 4.75766 3.57471 6.21696 2.86751 7.92431C2.1603 9.63165 1.97526 11.5104 2.33579 13.3229C2.69632 15.1354 3.58623 16.8003 4.89298 18.107C6.19972 19.4138 7.86462 20.3037 9.67713 20.6642C11.4896 21.0247 13.3684 20.8397 15.0757 20.1325C16.783 19.4253 18.2423 18.2277 19.269 16.6911C20.2958 15.1545 20.8438 13.348 20.8438 11.5C20.8409 9.02276 19.8556 6.6478 18.1039 4.89613C16.3522 3.14445 13.9772 2.15911 11.5 2.15625ZM15.47 5.6925L9.54824 7.80743C9.14728 7.95059 8.78312 8.18102 8.48207 8.48207C8.18102 8.78312 7.95059 9.14728 7.80743 9.54824L5.6925 15.47C5.60087 15.7264 5.58391 16.0035 5.6436 16.2691C5.70328 16.5347 5.83716 16.7779 6.02965 16.9704C6.22215 17.1628 6.46535 17.2967 6.73095 17.3564C6.99655 17.4161 7.27365 17.3991 7.52999 17.3075L13.4518 15.1926C13.8527 15.0494 14.2169 14.819 14.5179 14.5179C14.819 14.2169 15.0494 13.8527 15.1926 13.4518L17.3075 7.52963C17.399 7.27331 17.4159 6.99626 17.3562 6.73072C17.2965 6.46518 17.1626 6.22205 16.9701 6.02961C16.7776 5.83717 16.5345 5.70333 16.2689 5.64365C16.0034 5.58398 15.7263 5.60092 15.47 5.6925ZM11.5 12.9375C11.2157 12.9375 10.9378 12.8532 10.7014 12.6952C10.465 12.5373 10.2807 12.3128 10.1719 12.0501C10.0631 11.7874 10.0347 11.4984 10.0901 11.2196C10.1456 10.9407 10.2825 10.6846 10.4835 10.4835C10.6846 10.2825 10.9407 10.1456 11.2196 10.0901C11.4984 10.0347 11.7874 10.0631 12.0501 10.1719C12.3128 10.2807 12.5373 10.465 12.6952 10.7014C12.8532 10.9378 12.9375 11.2157 12.9375 11.5C12.9375 11.8813 12.7861 12.2469 12.5165 12.5165C12.2469 12.7861 11.8813 12.9375 11.5 12.9375Z" fill="white"/>
</svg>
