<svg width="13" height="10" viewBox="0 0 13 10" fill="none" xmlns="http://www.w3.org/2000/svg">
<path d="M7.00726 8.88913L12.7923 2.65896C12.9262 2.51486 13 2.3225 13 2.1174C13 1.9123 12.9262 1.71994 12.7923 1.57584L12.3664 1.11703C12.0888 0.818484 11.6378 0.818484 11.3606 1.11703L6.5027 6.34867L1.63936 1.11123C1.50545 0.967134 1.32694 0.887573 1.13659 0.887573C0.946033 0.887573 0.767523 0.967134 0.633508 1.11123L0.207682 1.57004C0.0737724 1.71425 9.53674e-07 1.90649 9.53674e-07 2.1116C9.53674e-07 2.3167 0.0737724 2.50906 0.207682 2.65315L5.99802 8.88913C6.13236 9.03357 6.31171 9.1129 6.50238 9.11245C6.69378 9.1129 6.87303 9.03357 7.00726 8.88913Z" fill="#01327C"/>
</svg>
