<svg width="18" height="18" viewBox="0 0 18 18" fill="none" xmlns="http://www.w3.org/2000/svg">
<path d="M2.25 18H12.75C13.3467 18 13.919 17.7629 14.341 17.341C14.7629 16.919 15 16.3467 15 15.75V10.11C15 9.91109 14.921 9.72032 14.7803 9.57967C14.6397 9.43902 14.4489 9.36 14.25 9.36C14.0511 9.36 13.8603 9.43902 13.7197 9.57967C13.579 9.72032 13.5 9.91109 13.5 10.11V15.75C13.5 15.9489 13.421 16.1397 13.2803 16.2803C13.1397 16.421 12.9489 16.5 12.75 16.5H2.25C2.05109 16.5 1.86032 16.421 1.71967 16.2803C1.57902 16.1397 1.5 15.9489 1.5 15.75V4.5C1.5 4.30109 1.57902 4.11032 1.71967 3.96967C1.86032 3.82902 2.05109 3.75 2.25 3.75H8.64C8.83891 3.75 9.02968 3.67098 9.17033 3.53033C9.31098 3.38968 9.39 3.19891 9.39 3C9.39 2.80109 9.31098 2.61032 9.17033 2.46967C9.02968 2.32902 8.83891 2.25 8.64 2.25H2.25C1.65326 2.25 1.08097 2.48705 0.65901 2.90901C0.237053 3.33097 0 3.90326 0 4.5L0 15.75C0 16.3467 0.237053 16.919 0.65901 17.341C1.08097 17.7629 1.65326 18 2.25 18Z" fill="white"/>
<path d="M15.807 0.00823496C15.5269 -0.019447 15.2441 0.0146264 14.9786 0.108055C14.7131 0.201483 14.4713 0.351994 14.2703 0.548985L7.57501 7.24123C7.45562 7.36 7.38001 7.51572 7.36051 7.68299L7.07476 10.0897C7.06226 10.195 7.07219 10.3016 7.10391 10.4027C7.13562 10.5038 7.1884 10.5971 7.25877 10.6763C7.32913 10.7555 7.41549 10.8189 7.51214 10.8624C7.60879 10.9058 7.71355 10.9282 7.81951 10.9282C7.84909 10.9283 7.87865 10.9266 7.90801 10.923L10.3148 10.6372C10.482 10.6177 10.6377 10.5421 10.7565 10.4227L17.4488 3.73124C17.6453 3.52975 17.7956 3.28778 17.889 3.02222C17.9824 2.75666 18.0167 2.47392 17.9895 2.19373C17.9381 1.63265 17.6896 1.1079 17.2883 0.712485C16.8933 0.310004 16.3685 0.0604907 15.807 0.00823496ZM16.3913 2.66998L9.88276 9.17848L8.67901 9.32099L8.82226 8.12099L15.3315 1.61249C15.5753 1.36574 16.0238 1.56898 16.227 1.76998C16.4303 1.97098 16.6395 2.42174 16.3913 2.66998Z" fill="white"/>
</svg>
