<svg width="5" height="16" viewBox="0 0 5 16" fill="none" xmlns="http://www.w3.org/2000/svg">
<path d="M0.5 8C0.5 7.27449 1.29126 6.5 2.5 6.5C3.70874 6.5 4.5 7.27449 4.5 8C4.5 8.72551 3.70874 9.5 2.5 9.5C1.29126 9.5 0.5 8.72551 0.5 8ZM0.5 2C0.5 1.27449 1.29126 0.5 2.5 0.5C3.70874 0.5 4.5 1.27449 4.5 2C4.5 2.72551 3.70874 3.5 2.5 3.5C1.29126 3.5 0.5 2.72551 0.5 2ZM0.5 14C0.5 13.2745 1.29126 12.5 2.5 12.5C3.70874 12.5 4.5 13.2745 4.5 14C4.5 14.7255 3.70874 15.5 2.5 15.5C1.29126 15.5 0.5 14.7255 0.5 14Z" fill="white" stroke="#FCFCFC"/>
</svg>
