<svg width="21" height="16" viewBox="0 0 21 16" fill="none" xmlns="http://www.w3.org/2000/svg">
<path d="M10.5 6.87L20.433 1.32C20.147 0.917056 19.7625 0.586363 19.3125 0.356411C18.8626 0.126459 18.3606 0.00414254 17.85 2.86356e-07H3.15C2.63674 -0.000213269 2.1312 0.119024 1.67736 0.347337C1.22352 0.575649 0.835138 0.906122 0.546 1.31L10.5 6.87Z" fill="white"/>
<path d="M11.55 8.59C11.231 8.76625 10.8688 8.85938 10.5 8.86C10.1321 8.86242 9.77005 8.77276 9.45 8.6L0 3.33V13C0 13.7956 0.331874 14.5587 0.922614 15.1213C1.51335 15.6839 2.31457 16 3.15 16H17.85C18.6854 16 19.4866 15.6839 20.0774 15.1213C20.6681 14.5587 21 13.7956 21 13V3.33L11.55 8.59Z" fill="white"/>
</svg>
