<svg width="23" height="17" viewBox="0 0 23 17" fill="none" xmlns="http://www.w3.org/2000/svg">
<path d="M22.8925 6.85164L20.3937 1.50467C19.91 0.564252 18.9696 0 17.9486 0H5.07827C4.03037 0 3.08995 0.564252 2.63318 1.53154L0.107477 6.8785C0.0537383 6.98598 0 7.09346 0 7.2278V13.6227C0 15.1005 1.20911 16.3096 2.68692 16.3096H20.3131C21.7909 16.3096 23 15.1005 23 13.6227V7.20093C23 7.06659 22.9731 6.95911 22.8925 6.85164ZM16.0946 6.36799V6.42173C15.7185 6.42173 15.396 6.66355 15.3154 7.03972C15.2886 7.17407 14.6437 10.2103 11.5 10.2103C8.38318 10.2103 7.71145 7.1472 7.68458 7.03972C7.63084 6.66355 7.28154 6.42173 6.90537 6.42173H2.01519L4.0035 2.20327C4.19159 1.80023 4.59463 1.53154 5.0514 1.53154H17.9217C18.3516 1.53154 18.7815 1.77336 18.9696 2.14953L20.9579 6.36799H16.0946Z" fill="white"/>
</svg>
