<svg width="18" height="18" viewBox="0 0 18 18" fill="none" xmlns="http://www.w3.org/2000/svg">
<path d="M12.0208 2.05963C9.27485 -0.686298 4.80565 -0.686298 2.05973 2.05963C-0.6856 4.80615 -0.6856 9.27474 2.05973 12.0213C4.50505 14.466 8.31351 14.7279 11.0576 12.8189C11.1154 13.0921 11.2475 13.3529 11.46 13.5654L15.459 17.5643C15.5971 17.7026 15.7611 17.8123 15.9416 17.8871C16.1222 17.962 16.3157 18.0005 16.5111 18.0005C16.7065 18.0005 16.9 17.962 17.0806 17.8871C17.2611 17.8123 17.4251 17.7026 17.5632 17.5643C17.7016 17.4263 17.8115 17.2623 17.8864 17.0818C17.9613 16.9012 17.9999 16.7077 17.9999 16.5122C17.9999 16.3167 17.9613 16.1232 17.8864 15.9426C17.8115 15.7621 17.7016 15.5981 17.5632 15.4601L13.5643 11.4599C13.3598 11.2568 13.1006 11.1174 12.8184 11.0587C14.7286 8.314 14.4667 4.50614 12.0208 2.05963ZM10.7582 10.7587C8.70816 12.8088 5.37174 12.8088 3.32227 10.7587C1.27339 8.70866 1.27339 5.37283 3.32227 3.32276C5.37174 1.27329 8.70816 1.27329 10.7582 3.32276C12.8083 5.37283 12.8083 8.70866 10.7582 10.7587Z" fill="#E0E5ED"/>
</svg>
