<svg width="10" height="10" viewBox="0 0 10 10" fill="none" xmlns="http://www.w3.org/2000/svg">
<path d="M0.0260801 3.64063C0.0580559 3.54153 0.118491 3.45404 0.199851 3.38906C0.281212 3.32407 0.379899 3.28447 0.483611 3.27519L3.36989 3.01309L4.51119 0.341737C4.59538 0.14597 4.78702 0.0192871 4.99996 0.0192871C5.21289 0.0192871 5.40456 0.14599 5.4887 0.342225L6.63002 3.01311L9.51675 3.27519C9.62034 3.28468 9.71887 3.32436 9.80012 3.38932C9.88138 3.45429 9.94177 3.54166 9.97383 3.64063C10.0397 3.84313 9.97887 4.06523 9.81842 4.20523L7.63672 6.11856L8.28006 8.95242C8.32713 9.16079 8.24627 9.37618 8.07337 9.50115C7.98046 9.5683 7.87173 9.60248 7.7621 9.60248C7.66756 9.60248 7.57381 9.57699 7.48963 9.52664L4.99996 8.03863L2.51118 9.52664C2.32907 9.63621 2.09949 9.62619 1.92699 9.50115C1.84254 9.44002 1.77792 9.35541 1.74117 9.25785C1.70442 9.16029 1.69717 9.05408 1.7203 8.95242L2.36362 6.11856L0.181943 4.20562C0.103462 4.13708 0.0468502 4.04699 0.0191402 3.94654C-0.00857067 3.84609 -0.00615692 3.73972 0.0260801 3.64063Z" fill="#FFC107"/>
</svg>
